<svg width="19" height="12" viewBox="0 0 19 12" fill="none" xmlns="http://www.w3.org/2000/svg">
<path d="M16.0407 2.01735C16.0407 1.18952 15.2139 0.512207 14.2034 0.512207H11.4474V2.01735H14.2034V4.01167L11.0065 7.28536H7.77279V3.5225H4.09816C2.06792 3.5225 0.423523 4.8696 0.423523 6.53278V8.7905H2.26084C2.26084 10.0398 3.49184 11.0482 5.01682 11.0482C6.54179 11.0482 7.77279 10.0398 7.77279 8.7905H11.8884L16.0407 4.53847V2.01735ZM5.01682 9.54307C4.51155 9.54307 4.09816 9.20442 4.09816 8.7905H5.93547C5.93547 9.20442 5.52208 9.54307 5.01682 9.54307Z" fill="black"/>
<path d="M7.77281 1.26465H3.1795V2.76978H7.77281V1.26465Z" fill="black"/>
<path d="M16.0407 6.53271C14.5157 6.53271 13.2847 7.54116 13.2847 8.79042C13.2847 10.0397 14.5157 11.0481 16.0407 11.0481C17.5657 11.0481 18.7967 10.0397 18.7967 8.79042C18.7967 7.54116 17.5657 6.53271 16.0407 6.53271ZM16.0407 9.54299C15.5354 9.54299 15.122 9.20433 15.122 8.79042C15.122 8.37651 15.5354 8.03785 16.0407 8.03785C16.546 8.03785 16.9594 8.37651 16.9594 8.79042C16.9594 9.20433 16.546 9.54299 16.0407 9.54299Z" fill="black"/>
</svg>
